<?xml version="1.0" encoding="utf-8"?>
<!-- Generator: Adobe Illustrator 21.1.0, SVG Export Plug-In . SVG Version: 6.00 Build 0)  -->
<svg version="1.1" id="Layer_1" xmlns="http://www.w3.org/2000/svg" xmlns:xlink="http://www.w3.org/1999/xlink" x="0px" y="0px"
	 viewBox="0 0 326 206" style="enable-background:new 0 0 326 206;" xml:space="preserve">
<style type="text/css">
	.st0{fill:#FFFFFF;}
	.st1{fill:#E3561A;}
	.st2{fill:#F08624;}
	.st3{fill:#F3A13C;}
	.st4{fill:#E2561A;}
</style>
<g>
	<path class="st0" d="M211.5,25.7c2.2,2.3,4,4.7,5.6,7C210.2,16.3,194.9,3.8,176.2,0c3.7,1.5,6.4,3.7,6.4,3.7s2.1,3,3.6,6
		c0.8,0.8,2.2,2.3,3.1,3.7c0,0-2-1.8-4.9-2.8c-3.9,0.3-12.7,1.6-20,5.9c-7.3-4.4-16.1-5.6-20-5.9c-2.8,1-4.9,2.8-4.9,2.8
		c1-1.4,2.3-2.9,3.1-3.7c1.5-3,3.6-6,3.6-6s2.7-2.1,6.4-3.7c-18.7,3.8-34,16.3-40.8,32.7c1.6-2.3,3.4-4.7,5.6-7c0,0,5.3-1.1,9.3-1.6
		c2.7-2.4,4.9-3.4,4.9-3.4c-1.3,1.3-2.5,3.2-3.4,4.9c-1.1,3.5-3.5,11.8-3.1,17.6c0.8,1.3,2.2,3.3,3.9,4.3c0,0-2.1-0.5-4.1-1.4
		c-2.4,1.5-4.8,3.8-7.1,6.3c3.1,6.2,6.9,11.3,10.2,14.9l0.7-0.1l3.8-0.4v0c5.6-0.6,9.9-0.9,14.6-1.1c-2.7-6.7-3.8-13-4.3-15.7
		c-2.9-0.1-4.7-0.6-4.7-0.6c1.7-0.2,3.5-0.8,5-1.3c9.2-8.8,17-13.3,20-14.9c0.2-0.5,0.9-2.4,1.2-4c0.3,1.6,1,3.4,1.2,4
		c3.1,1.6,10.8,6,20,14.9c1.5,0.5,3.3,1.1,5,1.3c0,0-1.8,0.5-4.7,0.6c-0.4,2.7-1.6,9-4.3,15.7c4.7,0.2,9,0.6,14.6,1.1v0l3.8,0.4
		l0.7,0.1c3.2-3.7,7-8.7,10.2-14.9c-2.2-2.5-4.7-4.9-7.1-6.3c-2,0.9-4.1,1.4-4.1,1.4c1.7-1,3.1-3,3.9-4.3c0.3-5.8-2-14.1-3.1-17.6
		c-0.9-1.6-2-3.6-3.4-4.9c0,0,2.2,1,4.9,3.4C206.1,24.6,211.5,25.7,211.5,25.7z"/>
	<g>
		<g>
			<path class="st0" d="M164.7,112.9c-1,0-2,0.1-3,0.3c2.7,1.8,4.5,4.8,4.5,8.2c0,1.5-0.4,3-1,4.3c0.7-0.2,1.4-0.3,2.1-0.3
				c3.9,0,7,3.1,7,7c0,3.9-3.1,7-7,7c-3.9,0-7-3.1-7-7c0-0.7,0.1-1.4,0.3-2.1c-1.3,0.6-2.7,1-4.3,1c-3.5,0-6.5-1.8-8.2-4.5
				c-0.2,1-0.3,2-0.3,3c0,9.3,7.5,16.8,16.8,16.8s16.8-7.5,16.8-16.8C181.6,120.5,174,112.9,164.7,112.9z"/>
		</g>
	</g>
	<g>
		<g>
			<g>
				<ellipse class="st0" cx="37.1" cy="3.5" rx="17.6" ry="1.3"/>
				<ellipse class="st0" cx="81.5" cy="3.5" rx="17.6" ry="1.3"/>
			</g>
			<path class="st1" d="M65.6,19.4L53,15c-0.3,0-0.6-0.3-0.6-0.6V7.7c0-0.3,0.3-0.6,0.6-0.6h12.6c0.3,0,0.6,0.3,0.6,0.6v11.1
				C66.2,19.1,66,19.4,65.6,19.4z"/>
		</g>
		<g>
			<g>
				<ellipse class="st0" cx="291.9" cy="3.5" rx="17.6" ry="1.3"/>
				<ellipse class="st0" cx="247.6" cy="3.5" rx="17.6" ry="1.3"/>
			</g>
			<path class="st1" d="M263.4,19.4l12.6-4.4c0.3,0,0.6-0.3,0.6-0.6V7.7c0-0.3-0.3-0.6-0.6-0.6h-12.6c-0.3,0-0.6,0.3-0.6,0.6v11.1
				C262.8,19.1,263.1,19.4,263.4,19.4z"/>
		</g>
	</g>
	<path class="st2" d="M181.4,112.7c4.5,4.3,7.2,10.4,7.2,17.1c0,13.2-10.7,23.9-23.9,23.9s-23.9-10.7-23.9-23.9
		c0-6.7,2.8-12.8,7.2-17.1c-3.8,0.2-7.6,0.5-11.3,0.9c-2.8,4.8-4.4,10.3-4.4,16.2c0,17.8,14.5,32.3,32.3,32.3s32.3-14.4,32.3-32.3
		c0-5.9-1.6-11.4-4.4-16.2C189,113.2,185.2,112.9,181.4,112.7z"/>
	<g>
		<path class="st0" d="M14.4,197.1v2.7H8.1v3h3.1v2.8H0v-2.8h2.2V194H0v-2.8h16.5v4.3h-4V194H8.1v3.1H14.4z"/>
		<path class="st0" d="M26.1,194v6.8c0,2.2,1,2.4,2.7,2.4c2.3,0,2.7-1,2.7-3.8V194h-1.7v-2.8h7.4v2.8h-1.8v5.6
			c0,4.4-1.2,6.5-7.1,6.5c-5.4,0-8.1-1.2-8.1-5.1V194h-1.8v-2.8H28v2.8H26.1z"/>
		<path class="st0" d="M57.2,191.1v6.1h-2.9c-0.2-1.6-0.5-3.2-2.6-3.2H51v8.9h2.7v2.8H42.3v-2.8h2.7V194h-0.7
			c-2.1,0-2.4,1.6-2.6,3.2h-2.9v-6.1H57.2z"/>
		<path class="st0" d="M66.7,194v6.8c0,2.2,1,2.4,2.7,2.4c2.3,0,2.7-1,2.7-3.8V194h-1.7v-2.8h7.4v2.8h-1.8v5.6
			c0,4.4-1.2,6.5-7.1,6.5c-5.4,0-8.1-1.2-8.1-5.1V194H59v-2.8h9.7v2.8H66.7z"/>
		<path class="st0" d="M87.8,200.2v2.6h1.1v2.8h-9.2v-2.8h2.2V194h-2.2v-2.8h11.6c4,0,7,0.6,7,4.3c0,2.8-2.1,3.9-4.2,4.3l2.4,3h1.8
			v2.8h-6.8L87.8,200.2z M89.5,198.1c1.6,0,2.6-0.5,2.6-2.3c0-1.1-0.5-1.9-2.2-1.9h-2.1v4.2H89.5z"/>
		<path class="st0" d="M112.9,202.8v-1.5h4v4.3h-16.5v-2.8h2.2V194h-2.2v-2.8h16.5v4.3h-4V194h-4.4v3.1h6.3v2.7h-6.3v3H112.9z"/>
		<path class="st0" d="M134.5,206c-6.3,0-9.5-1.1-9.5-7.6s3.2-7.6,9.5-7.6c6.3,0,9.5,1.1,9.5,7.6S140.8,206,134.5,206z M131.2,198.7
			c0,3.4,0.4,4.8,3.4,4.8c2.9,0,3.4-1.4,3.4-4.8v-0.6c0-3.4-0.4-4.8-3.4-4.8c-2.9,0-3.4,1.4-3.4,4.8V198.7z"/>
		<path class="st0" d="M160.6,197.1v2.7h-6.3v3h3.1v2.8h-11.2v-2.8h2.2V194h-2.2v-2.8h16.5v4.3h-4V194h-4.4v3.1H160.6z"/>
		<path class="st0" d="M184.3,197.1v2.7H178v3h3.1v2.8h-11.2v-2.8h2.2V194h-2.2v-2.8h16.5v4.3h-4V194H178v3.1H184.3z"/>
		<path class="st0" d="M197.7,206c-6.3,0-9.5-1.1-9.5-7.6s3.2-7.6,9.5-7.6c6.3,0,9.5,1.1,9.5,7.6S204,206,197.7,206z M194.4,198.7
			c0,3.4,0.4,4.8,3.4,4.8c2.9,0,3.4-1.4,3.4-4.8v-0.6c0-3.4-0.4-4.8-3.4-4.8c-2.9,0-3.4,1.4-3.4,4.8V198.7z"/>
		<path class="st0" d="M219.3,206c-6.3,0-9.5-1.1-9.5-7.6s3.2-7.6,9.5-7.6c6.3,0,9.5,1.1,9.5,7.6S225.6,206,219.3,206z M215.9,198.7
			c0,3.4,0.4,4.8,3.4,4.8c2.9,0,3.4-1.4,3.4-4.8v-0.6c0-3.4-0.4-4.8-3.4-4.8c-2.9,0-3.4,1.4-3.4,4.8V198.7z"/>
		<path class="st0" d="M249,191.1v6.1h-2.9c-0.2-1.6-0.5-3.2-2.6-3.2h-0.7v8.9h2.7v2.8h-11.4v-2.8h2.7V194h-0.7
			c-2.1,0-2.4,1.6-2.6,3.2h-2.9v-6.1H249z"/>
		<path class="st0" d="M250.9,194v-2.8h11.4c4.2,0,7,0.4,7,3.8c0,1.4-0.8,2.6-3,3.3c2.2,0.4,3.4,1.6,3.4,3.2c0,3.2-2.7,4.3-6.9,4.3
			h-11.9v-2.8h2.2V194H250.9z M261,197.2c1.4,0,2.1-0.7,2.1-1.7c0-1.3-0.9-1.5-2.1-1.5h-2v3.2H261z M259,199.6v3.3h2.3
			c1.1,0,2-0.4,2-1.6c0-0.8-0.6-1.6-2-1.6H259z"/>
		<path class="st0" d="M287.3,191.1v2.8H285l4.6,8.9h1.4v2.8h-9.7v-2.8h1.6l-0.4-0.7h-5.9l-0.4,0.7h1.5v2.8h-6.5v-2.8h1.3l5-8.9
			h-2.3v-2.8H287.3z M278.1,199.5h3.1l-1.6-3L278.1,199.5z"/>
		<path class="st0" d="M308.5,199.9v5.8h-15.6v-2.8h2.2V194h-2.2v-2.8h10.3v2.8H301v8.9h1.6c2.1,0,2.8-1.3,3-2.9H308.5z"/>
		<path class="st0" d="M326,199.9v5.8h-15.6v-2.8h2.2V194h-2.2v-2.8h10.3v2.8h-2.2v8.9h1.6c2.1,0,2.8-1.3,3-2.9H326z"/>
	</g>
	<g>
		<path class="st1" d="M104.6,98.8l-4.1-9.8c-5.7,1.5-11.3,3.1-16.9,4.9c4.8,4.6,7.2,7,11.8,11.8c-1.8,5.8-3.5,11.7-5.1,17.7
			c11.8-3.7,23.5-6.6,35.5-8.8c-3.8-1.9-7.6-3.7-11.5-5.4L104.6,98.8z"/>
		<path class="st1" d="M244.6,93.8c-5.5-1.7-11-3.3-16.5-4.8l-4,9.7l-10.1,10.3c-3.9,1.7-7.7,3.5-11.5,5.4c12,2.2,23.8,5.1,35.5,8.8
			c-1.6-5.9-3.3-11.8-5.1-17.7C237.4,100.8,239.7,98.4,244.6,93.8z"/>
	</g>
	<path class="st2" d="M114.2,109c33.3-6.7,66.4-6.7,99.7,0l7.9,1.8l6.2-33.1c-42.5-10.1-84.9-10.1-127.4-0.1l6.4,33.2L114.2,109z"/>
	<g>
		<path class="st1" d="M195,118.5c-0.6-1.7-1.4-3.4-2.3-4.9c-3.7-0.4-7.4-0.7-11.3-0.9c1.5,1.4,2.8,3.1,3.9,4.9
			C188.5,117.8,191.7,118.1,195,118.5z"/>
		<path class="st1" d="M144.2,117.4c1.1-1.8,2.3-3.4,3.8-4.8c-3.8,0.2-7.6,0.5-11.3,0.9c-0.9,1.5-1.7,3.1-2.3,4.8
			C137.8,118,141,117.7,144.2,117.4z"/>
	</g>
	<path class="st3" d="M225,93.6l3-15.8c-42.5-10.1-84.9-10.1-127.4-0.1l3,15.8C144.1,84.4,184.5,84.5,225,93.6z"/>
	<g>
		<g>
			<path class="st0" d="M113.5,81.5l11.8-1.8l0.6,3.6l-6.4,1l0.6,4.2l5.6-0.9l0.6,4l-5.6,0.9l1.2,7.7l-5.5,0.8L113.5,81.5z"/>
			<path class="st0" d="M131.7,79l5.5-0.5l1.3,15.6l5.9-0.5l0.3,4l-11.5,0.9L131.7,79z"/>
			<path class="st0" d="M148.9,97.5l-0.3-6.8l-5.9-12.7l6.4-0.2l2.4,7l1.7-7.2l5.4-0.2l-4.4,12.9l0.3,7L148.9,97.5z"/>
			<path class="st0" d="M163.7,77.5l12,0.2l-0.1,3.7l-6.4-0.1l-0.1,4.2l5.6,0.1l-0.1,4l-5.6-0.1l-0.1,7.8l-5.5-0.1L163.7,77.5z"/>
			<path class="st0" d="M188.4,98.5c-1.2-0.1-2.3-0.4-3.3-0.9c-0.9-0.5-1.7-1.1-2.3-2c-0.6-0.9-1.1-1.9-1.3-3.2
				c-0.3-1.3-0.3-2.7-0.2-4.3l0.8-10.3l5.5,0.4l-0.8,10.3c-0.1,0.9-0.1,1.7-0.1,2.5c0,0.7,0.1,1.3,0.3,1.8c0.2,0.5,0.4,0.9,0.7,1.2
				s0.7,0.4,1.2,0.5c0.5,0,1-0.1,1.3-0.3c0.4-0.2,0.6-0.6,0.9-1.1c0.2-0.5,0.4-1.1,0.5-1.8c0.1-0.7,0.2-1.5,0.3-2.4l0.8-10.3
				l4.6,0.4l-0.8,10.3c-0.1,1.6-0.4,3.1-0.8,4.3c-0.4,1.2-0.9,2.2-1.6,2.9c-0.7,0.8-1.5,1.3-2.4,1.6
				C190.8,98.5,189.7,98.6,188.4,98.5z"/>
			<path class="st0" d="M204.1,99.8l2.3-15l-3.9-0.6l0.7-4.5l13.4,2.1l-0.7,4.5l-4-0.6l-2.3,15L204.1,99.8z"/>
		</g>
	</g>
	<g>
		<g>
			<path class="st2" d="M219.8,42.6c-2.9,10.7-8.5,19.3-13.4,25.3c2.6,0.3,5.2,0.7,7.8,1c8.2-10.7,11.2-20.4,11.3-20.6l0.2-0.6
				l62.5-24.5l2.3-7.7L219.8,42.6z"/>
			<path class="st2" d="M224.9,61L284.2,38l2.3-7.7l-57.7,22.1C228.1,54.4,226.9,57.4,224.9,61z"/>
			<path class="st2" d="M277.8,53.6c0.6-1.1,1.1-2.2,1.6-3.3l1.4-4.7L220,68.9c-0.2,0.3-0.4,0.6-0.6,0.8c3.8,0.6,7.6,1.3,11.3,2
				L277.8,53.6z"/>
		</g>
		<g>
			<path class="st2" d="M109.3,42.6c2.9,10.7,8.5,19.3,13.4,25.3c-2.6,0.3-5.2,0.7-7.8,1c-8.2-10.7-11.2-20.4-11.3-20.6l-0.2-0.6
				L41,23.3l-2.3-7.7L109.3,42.6z"/>
			<path class="st2" d="M104.1,61L44.8,38l-2.3-7.7l57.7,22.1C100.9,54.4,102.2,57.4,104.1,61z"/>
			<path class="st2" d="M51.3,53.6c-0.6-1.1-1.1-2.2-1.6-3.3l-1.4-4.7l60.9,23.3c0.2,0.3,0.4,0.6,0.6,0.8c-3.8,0.6-7.6,1.3-11.3,2
				L51.3,53.6z"/>
		</g>
	</g>
	<g>
		<path class="st4" d="M222.9,45.4l-0.2,0.7c-0.1,0.2-3.3,10.6-12,22.4c1.2,0.2,2.3,0.3,3.5,0.5c8.2-10.7,11.2-20.4,11.3-20.6
			l0.2-0.6l62.5-24.5l1.2-3.9L222.9,45.4z"/>
		<path class="st4" d="M224.9,61L284.2,38l1.2-3.9l-58.3,22.6C226.5,58,225.8,59.4,224.9,61z"/>
		<path class="st4" d="M230.7,71.8l47.1-18.2c0.6-1.1,1.1-2.2,1.6-3.3l0.3-1.1l-55.1,21.5C226.7,71,228.7,71.4,230.7,71.8z"/>
		<path class="st4" d="M106,45.4l-66.4-26l1.2,3.9l62.5,24.5l0.2,0.6c0,0.2,3.1,9.9,11.3,20.6c1.2-0.2,2.3-0.3,3.5-0.5
			c-8.8-11.9-12-22.3-12-22.4L106,45.4z"/>
		<path class="st4" d="M101.8,56.7L43.5,34.1l1.2,3.9L104,61C103.1,59.4,102.4,58,101.8,56.7z"/>
		<path class="st4" d="M49.5,50.4c0.5,1.1,1.1,2.1,1.6,3.3l47.1,18.2c2-0.4,4.1-0.8,6.1-1.1L49.1,49.2L49.5,50.4z"/>
	</g>
	<g>
		<path class="st2" d="M272.4,0.6h-5.3c-0.3,0-0.6,0.3-0.6,0.6v4.4c0,0.3,0.3,0.6,0.6,0.6h5.3c0.3,0,0.6-0.3,0.6-0.6V1.2
			C273,0.9,272.7,0.6,272.4,0.6z"/>
		<path class="st2" d="M62,0.6h-5.3c-0.3,0-0.6,0.3-0.6,0.6v4.4c0,0.3,0.3,0.6,0.6,0.6H62c0.3,0,0.6-0.3,0.6-0.6V1.2
			C62.5,0.9,62.3,0.6,62,0.6z"/>
	</g>
	<g>
		<path class="st1" d="M56.1,5.5c0,0.3,0.3,0.6,0.6,0.6H62c0.3,0,0.6-0.3,0.6-0.6V4.8h-6.5V5.5z"/>
		<path class="st1" d="M266.5,4.8v0.7c0,0.3,0.3,0.6,0.6,0.6h5.3c0.3,0,0.6-0.3,0.6-0.6V4.8H266.5z"/>
	</g>
</g>
</svg>
